<?xml version="1.0" standalone="no"?>
<!DOCTYPE svg PUBLIC "-//W3C//DTD SVG 20010904//EN"
 "http://www.w3.org/TR/2001/REC-SVG-20010904/DTD/svg10.dtd">
<svg version="1.0" xmlns="http://www.w3.org/2000/svg"
 width="128.000000pt" height="128.000000pt" viewBox="0 0 128.000000 128.000000"
 preserveAspectRatio="xMidYMid meet">
<metadata>
Created by potrace 1.14, written by Peter Selinger 2001-2017
</metadata>
<g transform="translate(0.000000,128.000000) scale(0.100000,-0.100000)"
fill="#000000" stroke="none">
<path d="M831 1248 c-8 -18 -27 -62 -43 -97 -28 -62 -30 -97 -7 -89 11 4 89
183 89 206 0 24 -25 11 -39 -20z"/>
<path d="M625 1081 c-36 -15 -48 -38 -42 -81 5 -36 0 -46 -45 -107 -66 -90
-70 -99 -63 -135 7 -28 1 -37 -83 -122 -49 -50 -93 -101 -96 -113 -4 -12 -17
-25 -29 -28 -35 -11 -267 -246 -267 -271 0 -12 9 -33 20 -47 11 -14 16 -28 12
-31 -13 -8 -4 -75 11 -90 23 -24 52 -34 80 -29 15 3 42 -2 62 -11 30 -14 38
-15 60 -3 14 7 130 117 258 244 170 170 236 230 247 224 8 -4 21 -7 28 -5 6 1
16 2 20 3 5 0 42 26 83 56 66 50 77 55 110 50 29 -5 41 -2 62 17 26 23 31 35
28 71 -1 26 -381 404 -412 411 -13 3 -33 1 -44 -3z"/>
<path d="M977 1004 c-43 -42 -52 -64 -25 -64 16 0 99 90 93 101 -10 16 -20 10
-68 -37z"/>
<path d="M1151 827 c-89 -40 -116 -64 -68 -60 12 1 40 9 62 19 22 10 43 17 48
16 4 -1 7 3 7 8 0 6 7 10 15 10 25 0 65 23 65 37 0 21 -29 14 -129 -30z"/>
</g>
</svg>
